<?xml version="1.0" standalone="no"?>
<!DOCTYPE svg PUBLIC "-//W3C//DTD SVG 20010904//EN"
 "http://www.w3.org/TR/2001/REC-SVG-20010904/DTD/svg10.dtd">
<svg version="1.0" xmlns="http://www.w3.org/2000/svg"
 width="700.000000pt" height="700.000000pt" viewBox="0 0 700.000000 700.000000"
 preserveAspectRatio="xMidYMid meet">
<metadata>
Created by potrace 1.14, written by Peter Selinger 2001-2017
</metadata>
<g transform="translate(0.000000,700.000000) scale(0.100000,-0.100000)"
fill="#000000" stroke="none">
<path d="M3278 6995 c-1 -1 -43 -6 -93 -10 -49 -4 -92 -8 -95 -10 -3 -1 -34
-6 -70 -9 -36 -4 -83 -11 -105 -16 -22 -5 -57 -11 -79 -14 -21 -4 -41 -8 -45
-10 -3 -2 -24 -7 -46 -10 -111 -18 -368 -98 -560 -176 -249 -101 -320 -147
-363 -233 l-22 -45 -65 0 c-84 -1 -140 -26 -281 -129 -116 -84 -120 -87 -253
-202 -154 -133 -364 -356 -469 -499 -9 -13 -34 -47 -56 -75 -21 -29 -63 -90
-93 -137 -30 -47 -64 -97 -74 -112 -10 -15 -19 -29 -19 -32 0 -3 -14 -29 -31
-58 -155 -261 -334 -737 -374 -988 -3 -19 -7 -42 -10 -50 -11 -38 -41 -238
-51 -340 -17 -167 -7 -232 48 -312 18 -26 18 -27 -12 -75 -33 -55 -47 -108
-45 -173 2 -52 15 -195 20 -219 2 -9 6 -44 10 -76 6 -49 41 -226 61 -310 3
-11 7 -30 10 -43 10 -48 77 -261 111 -352 83 -223 193 -442 331 -664 47 -75
225 -323 242 -336 4 -3 37 -41 75 -85 161 -186 404 -408 575 -525 13 -8 28
-19 34 -25 44 -38 140 -92 180 -102 11 -2 47 -4 79 -4 55 0 58 -2 71 -32 29
-67 84 -116 190 -167 213 -103 493 -202 690 -245 193 -42 202 -44 316 -60 8
-1 44 -5 80 -9 36 -5 79 -10 95 -13 56 -9 509 -10 600 -2 112 10 192 19 228
25 15 2 42 6 60 9 280 46 548 126 827 245 214 91 249 118 300 224 25 51 29 69
27 131 -3 91 -2 89 -299 600 -205 354 -828 1432 -855 1480 -7 11 -32 54 -56
95 -24 41 -57 100 -74 130 -17 30 -78 138 -137 239 -59 100 -110 189 -112 195
-4 10 107 13 538 11 299 -1 545 -2 548 -3 3 -1 5 -145 5 -320 1 -308 2 -319
24 -380 87 -233 384 -306 577 -142 81 69 123 166 125 287 2 92 13 129 41 136
23 7 63 -6 73 -24 5 -6 8 -197 9 -423 2 -407 2 -411 25 -460 110 -233 431
-238 546 -10 l29 59 1 640 1 640 230 1 c126 0 251 4 279 8 96 15 180 78 226
173 20 40 24 63 24 138 -1 382 -146 927 -362 1360 -258 516 -673 989 -1156
1318 -79 53 -128 70 -207 69 -54 -1 -55 0 -74 38 -40 82 -91 119 -276 202
-254 113 -554 204 -817 248 -35 6 -73 12 -86 14 -13 2 -55 7 -93 11 -38 4 -78
10 -89 12 -23 5 -551 13 -557 8z"/>
</g>
</svg>
